<svg width="100" height="100" viewBox="0 0 100 100" fill="none" xmlns="http://www.w3.org/2000/svg">
<rect width="100" height="100" rx="16" fill="#1D1D1D"/>
<path d="M26.375 42.4999V57.3047C26.375 62.2135 31.7598 65.3139 36.1436 62.9317L42.95 59.23M26.375 33.9999V27.695C26.375 22.7862 31.7598 19.6859 36.1436 22.068L63.3691 36.875C64.3898 37.4177 65.2435 38.228 65.8388 39.2188C66.4342 40.2097 66.7487 41.3439 66.7487 42.4999C66.7487 43.6558 66.4342 44.79 65.8388 45.7809C65.2435 46.7718 64.3898 47.582 63.3691 48.1247L49.7564 55.5282" stroke="#DBFF00" stroke-width="3.1875" stroke-linecap="round"/>
<path d="M35.375 57.4999V72.3047C35.375 77.2135 40.7598 80.3139 45.1436 77.9317L51.95 74.23M35.375 48.9999V42.695C35.375 37.7862 40.7598 34.6859 45.1436 37.068L72.3691 51.875C73.3898 52.4177 74.2435 53.228 74.8388 54.2188C75.4342 55.2097 75.7487 56.3439 75.7487 57.4999C75.7487 58.6558 75.4342 59.79 74.8388 60.7809C74.2435 61.7718 73.3898 62.582 72.3691 63.1247L58.7564 70.5282" stroke="#00E0FF" stroke-width="3.1875" stroke-linecap="round"/>
</svg>
